<svg width="40" height="41" viewBox="0 0 40 41" fill="none" xmlns="http://www.w3.org/2000/svg">
<path d="M33.1777 26.3555C36.916 26.3556 40 29.4395 40 33.1777C39.9999 36.9159 36.9159 39.9999 33.1777 40C29.4395 40 26.3556 36.916 26.3555 33.1777C26.3555 29.4394 29.4394 26.3555 33.1777 26.3555ZM6.82227 0C10.5605 0 13.6444 3.08402 13.6445 6.82227C13.6445 10.5606 10.5606 13.6445 6.82227 13.6445C3.08402 13.6444 0 10.5605 0 6.82227C9.04209e-05 3.08408 3.08408 9.04231e-05 6.82227 0Z" fill="#1BC5BD"/>
<path d="M30.7477 0.560755C33.8318 -0.841114 37.8505 0.747671 39.1589 3.92524C41.0281 7.00935 39.2524 11.1215 36.2617 12.8037C33.271 13.9252 30.0935 14.3925 27.1963 15.8879C23.7383 17.6636 20.6542 20.2804 18.2243 23.271C16.1682 26.3551 14.7664 29.8131 13.8318 33.3645C13.1776 35.7009 12.0561 38.2243 9.71964 39.3458C6.2617 41.1215 1.12151 39.2523 0.373849 35.2337C-0.747647 32.0561 0.934596 28.1308 4.11217 27.1028C8.0374 25.7009 12.3365 24.9533 15.7944 22.3365C21.4019 18.5981 24.9533 12.3365 26.4486 5.88786C26.8224 3.55141 28.3178 1.40188 30.7477 0.560755Z" fill="#1364B3"/>
</svg> 