<svg width="49" height="48" viewBox="0 0 49 48" fill="none" xmlns="http://www.w3.org/2000/svg">
<path d="M24.3335 4C25.4381 4 26.3335 4.89543 26.3335 6V10.1426C32.4648 11.0196 37.3139 15.8687 38.1909 22H42.3335C43.4381 22 44.3335 22.8954 44.3335 24C44.3335 25.1046 43.4381 26 42.3335 26H38.1909C37.3139 32.1312 32.4647 36.9793 26.3335 37.8564V42C26.3335 43.1046 25.4381 44 24.3335 44C23.2289 44 22.3335 43.1046 22.3335 42V37.8564C16.2023 36.9793 11.3531 32.1312 10.4761 26H6.3335C5.22893 26 4.3335 25.1046 4.3335 24C4.3335 22.8954 5.22893 22 6.3335 22H10.4761C11.3531 15.8687 16.2022 11.0196 22.3335 10.1426V6C22.3335 4.89543 23.2289 4 24.3335 4ZM26.3335 18C26.3335 19.1046 25.4381 20 24.3335 20C23.2289 20 22.3335 19.1046 22.3335 18V14.2002C18.4153 14.9956 15.3291 18.0818 14.5337 22H18.3335C19.4381 22 20.3335 22.8954 20.3335 24C20.3335 25.1046 19.4381 26 18.3335 26H14.5337C15.3291 29.9182 18.4154 33.0034 22.3335 33.7988V30C22.3335 28.8954 23.2289 28 24.3335 28C25.4381 28 26.3335 28.8954 26.3335 30V33.7988C30.2516 33.0034 33.3379 29.9182 34.1333 26H30.3335C29.2289 26 28.3335 25.1046 28.3335 24C28.3335 22.8954 29.2289 22 30.3335 22H34.1333C33.3379 18.0818 30.2517 14.9956 26.3335 14.2002V18Z" fill="#88BFF1"/>
</svg>
