<svg width="49" height="48" viewBox="0 0 49 48" fill="none" xmlns="http://www.w3.org/2000/svg">
<path d="M34.667 4C39.0853 4 42.667 7.58172 42.667 12V36C42.667 40.4183 39.0853 44 34.667 44H14.667C10.2487 44 6.66699 40.4183 6.66699 36V12C6.66699 7.58172 10.2487 4 14.667 4H34.667ZM14.667 8C12.4579 8 10.667 9.79086 10.667 12V36C10.667 38.2091 12.4579 40 14.667 40H34.667C36.8761 40 38.667 38.2091 38.667 36V12C38.667 9.79086 36.8761 8 34.667 8H14.667ZM20.667 32C21.7716 32 22.667 32.8954 22.667 34C22.667 35.1046 21.7716 36 20.667 36H16.667C15.5624 36 14.667 35.1046 14.667 34C14.667 32.8954 15.5624 32 16.667 32H20.667ZM32.667 32C33.7716 32 34.667 32.8954 34.667 34C34.667 35.1046 33.7716 36 32.667 36H28.667C27.5624 36 26.667 35.1046 26.667 34C26.667 32.8954 27.5624 32 28.667 32H32.667ZM20.667 26C21.7716 26 22.667 26.8954 22.667 28C22.667 29.1046 21.7716 30 20.667 30H16.667C15.5624 30 14.667 29.1046 14.667 28C14.667 26.8954 15.5624 26 16.667 26H20.667ZM32.667 26C33.7716 26 34.667 26.8954 34.667 28C34.667 29.1046 33.7716 30 32.667 30H28.667C27.5624 30 26.667 29.1046 26.667 28C26.667 26.8954 27.5624 26 28.667 26H32.667ZM32.667 10C34.8761 10 36.667 11.7909 36.667 14V18C36.667 20.2091 34.8761 22 32.667 22H16.667C14.4579 22 12.667 20.2091 12.667 18V14C12.667 11.7909 14.4579 10 16.667 10H32.667ZM16.667 18H32.667V14H16.667V18Z" fill="#88BFF1"/>
</svg>
