<svg width="49" height="48" viewBox="0 0 49 48" fill="none" xmlns="http://www.w3.org/2000/svg">
<path d="M40.667 4C41.6669 4 42.4669 4.59983 42.667 5.59961L44.667 15.5996C44.667 16.1996 44.6666 16.6002 44.2666 17.2002C43.8666 17.8 43.2669 18 42.667 18H40.667V42C40.667 43.2 39.867 44 38.667 44H10.667C9.46699 44 8.66699 43.2 8.66699 42V18H6.66699C6.06714 18 5.46738 17.6001 5.06738 17.2002C4.66738 16.8002 4.66699 16.1996 4.66699 15.5996L6.66699 5.59961C6.86712 4.59983 7.66712 4 8.66699 4H40.667ZM12.667 40H16.667V32C16.667 30.8 17.467 30 18.667 30H30.667C31.867 30 32.667 30.8 32.667 32V40H36.667V18H12.667V40ZM20.667 40H28.667V34H20.667V40ZM18.667 20C19.867 20 20.667 20.8 20.667 22V24C20.667 25.2 19.867 26 18.667 26C17.467 26 16.667 25.2 16.667 24V22C16.667 20.8 17.467 20 18.667 20ZM30.667 20C31.867 20 32.667 20.8 32.667 22V24C32.667 25.2 31.867 26 30.667 26C29.467 26 28.667 25.2 28.667 24V22C28.667 20.8 29.467 20 30.667 20ZM9.06738 14H40.2666L39.0674 8H10.2666L9.06738 14Z" fill="#1364B3"/>
</svg>
