<svg width="40" height="40" viewBox="0 0 40 40" fill="none" xmlns="http://www.w3.org/2000/svg">
<path d="M20 0C31 0 40 9 40 20C40 31 31 40 20 40C9 40 0 31 0 20C0 9 9 0 20 0ZM20 4C11.2 4 4 11.2 4 20C4 28.8 11.2 36 20 36C28.8 36 36 28.8 36 20C36 11.2 28.8 4 20 4ZM18.5996 10.4004C19.7996 10.4004 20.5996 11.2004 20.5996 12.4004V19.6006H25.5996C26.7996 19.6006 27.5996 20.6008 27.5996 21.8008C27.5994 23.0006 26.7995 23.8008 25.5996 23.8008H18.5996C17.3997 23.8008 16.5998 23.0006 16.5996 21.8008V12.4004C16.5996 11.2004 17.3996 10.4004 18.5996 10.4004Z" fill="#88BFF1"/>
</svg>
