<svg width="49" height="48" viewBox="0 0 49 48" fill="none" xmlns="http://www.w3.org/2000/svg">
<path d="M42.3335 9.6C42.1335 8.8 41.3335 8 40.3335 8H16.3335V6C16.3335 4.8 15.5335 4 14.3335 4C13.1335 4 12.3335 4.8 12.3335 6V8H8.3335C7.3335 8 6.5335 8.8 6.3335 9.6L4.3335 21.6C4.3335 22.2 4.3335 22.8 4.7335 23.2C5.1335 23.6 5.7335 24 6.3335 24V42C6.3335 43.2 7.1335 44 8.3335 44H22.3335H32.3335H40.3335C41.5335 44 42.3335 43.2 42.3335 42V24C42.9335 24 43.5335 23.8 43.9335 23.2C44.3335 22.6 44.3335 22.2 44.3335 21.6L42.3335 9.6ZM9.9335 12H38.5335L39.9335 20H8.7335L9.9335 12ZM24.3335 40V32H30.3335V40H24.3335ZM38.3335 40H34.3335V30C34.3335 28.8 33.5335 28 32.3335 28H22.3335C21.1335 28 20.3335 28.8 20.3335 30V40H10.3335V24H38.3335V40Z" fill="#1364B3"/>
</svg>
