<svg width="48" height="48" viewBox="0 0 48 48" fill="none" xmlns="http://www.w3.org/2000/svg">
<path d="M24 4C35 4 44 13 44 24C44 35 35 44 24 44C13 44 4 35 4 24C4 13 13 4 24 4ZM24 8C15.2 8 8 15.2 8 24C8 32.8 15.2 40 24 40C32.8 40 40 32.8 40 24C40 15.2 32.8 8 24 8ZM25 13.2002C27.5999 13.2002 30.2 14.3997 32 16.5996C32.8 17.3996 32.5998 18.6004 31.7998 19.4004C30.9998 20.2 29.7999 20 29 19.2002C27.8 17.8002 26.4 17.2002 25 17.2002C22.6 17.2002 20.3998 19.2 19.7998 22H24C25.2 22 26 22.8 26 24C26 25.2 25.2 26 24 26H19.5996C20.3996 28.8 22.4 30.7998 25 30.7998C26.6 30.7998 28 29.9998 29 28.7998C29.6 28 30.9998 27.8 31.7998 28.5996C32.5998 29.1996 32.8 30.6004 32 31.4004C30.2 33.6002 27.5999 34.7998 25 34.7998C20.4 34.7998 16.3996 31 15.5996 26H14C12.8 26 12 25.2 12 24C12 22.8 12.8 22 14 22H15.5996C16.3996 17 20.4 13.2002 25 13.2002Z" fill="#88BFF1"/>
</svg>
