<svg width="24" height="36" viewBox="0 0 24 36" fill="none" xmlns="http://www.w3.org/2000/svg">
<path d="M22.0002 18.2276C22.0002 17.5693 21.9406 16.9443 21.8384 16.3359H12.2173V20.0943H17.726C17.4791 21.3276 16.7554 22.3693 15.6826 23.0776V25.5776H18.9691C20.8933 23.8359 22.0002 21.2693 22.0002 18.2276Z" fill="#4285F4"/>
<path d="M12.2174 27.9979C14.976 27.9979 17.2834 27.0979 18.9692 25.5729L15.6827 23.0729C14.7632 23.6729 13.5967 24.0396 12.2174 24.0396C9.55244 24.0396 7.29616 22.2812 6.48731 19.9062H3.09863V22.4812C4.77594 25.7479 8.22422 27.9979 12.2174 27.9979Z" fill="#34A853"/>
<path d="M6.48701 19.9073C6.27416 19.3073 6.16347 18.6656 6.16347 17.999C6.16347 17.3323 6.28267 16.6906 6.48701 16.0906V13.5156H3.09834C2.40017 14.8656 2 16.3823 2 17.999C2 19.6156 2.40017 21.1323 3.09834 22.4823L6.48701 19.9073Z" fill="#FBBC05"/>
<path d="M12.2174 11.9583C13.7244 11.9583 15.0697 12.4667 16.134 13.4583L19.0458 10.6083C17.2834 8.99167 14.976 8 12.2174 8C8.22422 8 4.77594 10.25 3.09863 13.5167L6.48731 16.0917C7.29616 13.7167 9.55244 11.9583 12.2174 11.9583Z" fill="#EA4335"/>
</svg>
