<svg width="48" height="48" viewBox="0 0 48 48" fill="none" xmlns="http://www.w3.org/2000/svg">
<path d="M43.1996 22.4031L25.1996 8.40313C24.3996 7.80312 23.3996 7.80312 22.7996 8.40313L15.9996 13.6031V10.0031C15.9996 8.80312 15.1996 8.00313 13.9996 8.00313C12.7996 8.00313 11.9996 8.80312 11.9996 10.0031V16.0031C11.9996 16.2031 11.9996 16.4031 12.1996 16.6031L4.79965 22.4031C3.99965 23.0031 3.79965 24.4031 4.39965 25.2031C4.99965 26.0031 6.39965 26.2031 7.19965 25.6031L7.99965 25.0031V42.0031C7.99965 43.2031 8.79965 44.0031 9.99965 44.0031H17.9996H29.9996H37.9996C39.1996 44.0031 39.9996 43.2031 39.9996 42.0031V25.0031L40.7996 25.6031C41.1996 25.8031 41.5996 26.0031 41.9996 26.0031C42.5996 26.0031 43.1996 25.8031 43.5996 25.2031C44.1996 24.4031 43.9996 23.0031 43.1996 22.4031ZM19.9996 40.0031V30.0031H27.9996V40.0031H19.9996ZM35.9996 22.0031V40.0031H31.9996V28.0031C31.9996 26.8031 31.1996 26.0031 29.9996 26.0031H17.9996C16.7996 26.0031 15.9996 26.8031 15.9996 28.0031V40.0031H11.9996V22.0031C11.9996 22.0031 11.9996 22.0031 11.9996 21.8031L23.9996 12.4031L35.9996 22.0031Z" fill="#1364B3"/>
</svg>
