<svg width="24" height="36" viewBox="0 0 24 36" fill="none" xmlns="http://www.w3.org/2000/svg">
<path d="M11.4004 8.20123C11.8001 7.90167 12.1999 7.90167 12.5996 8.20123C12.5996 8.20123 16.4002 11.102 20.2002 12.002C20.7 12.1021 21 12.5021 21 13.002V17.002C20.9997 24.5983 12.7075 27.7987 12.4004 27.9014C12.2004 28.0014 12.1 28.002 12 28.002C11.9 28.002 11.7996 28.0014 11.5996 27.9014C11.2925 27.7987 3.00028 24.5983 3 17.002V13.002C3 12.5021 3.29996 12.1021 3.7998 12.002C7.4998 11.102 11.4004 8.20123 11.4004 8.20123ZM12 10.3018C10.8 11.1019 7.99993 12.9018 5 13.8018V17.002C5.00027 22.4017 10.4999 25.3014 12 25.9014C13.5001 25.3014 18.9997 22.4017 19 17.002V13.8018C16.0001 12.9018 13.2001 11.1019 12 10.3018ZM14.2998 15.3018C14.6998 14.9018 15.3002 14.9018 15.7002 15.3018C16.0999 15.7017 16.0998 16.3013 15.7002 16.7012L11.7002 20.7012C11.5002 20.9012 11.3 21.002 11 21.002C10.7 21.002 10.4998 20.9012 10.2998 20.7012L8.2998 18.7012C7.90017 18.3013 7.90009 17.7017 8.2998 17.3018C8.6998 16.9018 9.3002 16.9018 9.7002 17.3018L11 18.6016L14.2998 15.3018Z" fill="#141414"/>
</svg>
