<svg width="49" height="48" viewBox="0 0 49 48" fill="none" xmlns="http://www.w3.org/2000/svg">
<path d="M23.4668 4.40313C24.2668 3.80312 25.0672 3.80312 25.8672 4.40313C25.8874 4.41856 33.4775 10.2061 41.0674 12.0037C42.0671 12.2039 42.667 13.0039 42.667 14.0037V22.0037C42.6667 37.2034 26.0668 43.6035 25.4668 43.8035C25.067 44.0034 24.867 44.0037 24.667 44.0037C24.467 44.0037 24.267 44.0034 23.8672 43.8035C23.2672 43.6035 6.66729 37.2034 6.66699 22.0037V14.0037C6.66699 13.0039 7.26687 12.2039 8.2666 12.0037C15.6565 10.2062 23.4456 4.4189 23.4668 4.40313ZM24.667 8.60332C22.267 10.2033 16.667 13.8033 10.667 15.6033V22.0037C10.6673 32.8034 21.667 38.6035 24.667 39.8035C27.667 38.6035 38.6667 32.8034 38.667 22.0037V15.6033C32.667 13.8033 27.067 10.2033 24.667 8.60332ZM29.2666 18.6033C30.0666 17.8033 31.2674 17.8033 32.0674 18.6033C32.8671 19.4032 32.867 20.6032 32.0674 21.4031L24.0674 29.4031C23.6674 29.8031 23.267 30.0037 22.667 30.0037C22.067 30.0037 21.6666 29.8031 21.2666 29.4031L17.2666 25.4031C16.467 24.6032 16.4669 23.4032 17.2666 22.6033C18.0666 21.8033 19.2674 21.8033 20.0674 22.6033L22.667 25.2029L29.2666 18.6033Z" fill="#88BFF1"/>
</svg>
