<svg width="41" height="38" viewBox="0 0 41 38" fill="none" xmlns="http://www.w3.org/2000/svg">
<path d="M30.9335 38C30.5335 38 29.9335 37.8 29.5335 37.6L20.3335 32.8L11.1335 37.6C10.1335 38 8.93348 38 8.13348 37.4C7.13348 36.8 6.73348 35.6 6.93348 34.4L8.73348 24.4L1.33348 17.4C0.333481 16.6 0.133481 15.4 0.533481 14.2C0.933481 13.2 1.73348 12.4 2.93348 12.2L13.1335 10.8L17.7335 1.6C18.1335 0.6 19.1335 0 20.3335 0C21.5335 0 22.5335 0.6 22.9335 1.6L27.5335 10.8L37.7335 12.2C38.9335 12.4 39.7335 13.2 40.1335 14.2C40.5335 15.2 40.1335 16.4 39.3335 17.2L31.9335 24.4L33.7335 34.4C33.9335 35.6 33.5335 36.6 32.5335 37.4C32.1335 37.8 31.5335 38 30.9335 38ZM5.53348 16L11.3335 21.6C12.3335 22.6 12.7335 23.8 12.5335 25.2L11.1335 33.2L18.5335 29.4C19.7335 28.8 21.1335 28.8 22.1335 29.4L29.5335 33.2L28.1335 25.2C27.9335 24 28.3335 22.6 29.3335 21.6L35.1335 16L26.9335 14.8C25.7335 14.6 24.5335 13.8 23.9335 12.6L20.3335 5.2L16.7335 12.6C16.1335 13.8 15.1335 14.6 13.7335 14.8L5.53348 16Z" fill="#88BFF1"/>
</svg>
