<svg width="48" height="48" viewBox="0 0 48 48" fill="none" xmlns="http://www.w3.org/2000/svg">
<path d="M24 4C13 4 4 13 4 24C4 35 13 44 24 44C35 44 44 35 44 24C44 13 35 4 24 4ZM24 8C29.6 8 34.6 11 37.4 15.4L32.8 18.4C32 18.8 31.8 19.8 32 20.6L33.6 25.2L31.2 26.8L30 21.6C30 21.2 29.8 21 29.4 20.6L26 17.2V14C26 13.2 25.6 12.6 24.8 12.2L20.8 10.2C20.2 9.8 19.2 10 18.6 10.6L15.2 14H12.8L12.2 13.4C15 10 19.2 8 24 8ZM9.6 31C9.6 31 9.8 31 9.6 31L11 28.2L18 29.6V32.8L13.4 36C11.8 34.6 10.6 33 9.6 31ZM24 40C21.6 40 19.2 39.4 17 38.4L21 35.6C21.6 35.2 22 34.6 22 34V28C22 27 21.4 26.2 20.4 26L10.4 24C9.6 23.8 8.6 24.2 8.2 25L8 25.4C8 25 8 24.4 8 24C8 21.4 8.6 18.8 9.8 16.6L10.6 17.4C11 17.8 11.4 18 12 18H16C16.6 18 17 17.8 17.4 17.4L20.4 14.4L22 15.2V18C22 18.6 22.2 19 22.6 19.4L26.2 23L28 30.4C28.2 31 28.6 31.6 29.2 31.8C29.4 31.8 29.6 32 30 32C30.4 32 30.8 31.8 31.2 31.6L37.2 27.6C38 27.2 38.2 26.2 38 25.4L36.4 20.8L39.2 19C39.8 20.6 40 22.2 40 24C40 32.8 32.8 40 24 40Z" fill="#88BFF1"/>
</svg>
